<?xml version="1.0" encoding="UTF-8"?>
<svg width="104px" height="110px" viewBox="0 0 104 110" version="1.1" xmlns="http://www.w3.org/2000/svg" xmlns:xlink="http://www.w3.org/1999/xlink">
    <!-- Generator: Sketch 50.2 (55047) - http://www.bohemiancoding.com/sketch -->
    <title>Combined Shape</title>
    <desc>Created with Sketch.</desc>
    <defs></defs>
    <g id="шо╛шоб" stroke="none" stroke-width="1" fill="none" fill-rule="evenodd">
        <g id="Desktop-HD-Copy-12" transform="translate(-66.000000, -304.000000)" fill="#FFFFFF">
            <g id="Group-11">
                <g id="Group-7" transform="translate(66.000000, 299.000000)">
                    <g id="Group">
                        <g id="Group-5">
                            <path d="M83.1999474,77.033339 C85.0130107,73.4535488 88.724841,71 93.0092466,71 C99.0792721,71 104,75.9248678 104,82 C104,84.3321082 103.274871,86.494711 102.037959,88.2742826 L102.083334,88.3015303 C92.4728651,104.298039 74.9620539,115 54.9537671,115 C24.6036396,115 0,90.3756612 0,60 C0,29.6243388 24.6036396,5 54.9537671,5 C75.0412717,5 92.6114852,15.7868717 102.197113,31.8887206 L102.16275,31.9091677 C103.3235,33.6530336 104,35.7474479 104,38 C104,44.0751322 99.0792721,49 93.0092466,49 C88.724841,49 85.0130107,46.5464512 83.1999474,42.966661 C77.4269424,33.3978032 66.9368702,27 54.9537671,27 C36.7436906,27 21.9815068,41.7746033 21.9815068,60 C21.9815068,78.2253967 36.7436906,93 54.9537671,93 C66.9368702,93 77.4269424,86.6021968 83.1999474,77.033339 Z M55.3846154,76.5 C46.2081918,76.5 38.7692308,69.1126984 38.7692308,60 C38.7692308,50.8873016 46.2081918,43.5 55.3846154,43.5 C64.5610389,43.5 72,50.8873016 72,60 C72,69.1126984 64.5610389,76.5 55.3846154,76.5 Z" id="Combined-Shape"></path>
                        </g>
                    </g>
                </g>
            </g>
        </g>
    </g>
</svg>