<?xml version="1.0" encoding="UTF-8"?>
<svg width="104px" height="110px" viewBox="0 0 104 110" version="1.1" xmlns="http://www.w3.org/2000/svg" xmlns:xlink="http://www.w3.org/1999/xlink">
    <!-- Generator: Sketch 50.2 (55047) - http://www.bohemiancoding.com/sketch -->
    <title>Combined Shape</title>
    <desc>Created with Sketch.</desc>
    <defs></defs>
    <g id="шо╛шоб" stroke="none" stroke-width="1" fill="none" fill-rule="evenodd">
        <g id="Desktop-HD-Copy-12" transform="translate(-415.000000, -304.000000)" fill="#1A1A1A">
            <path d="M498.199947,376.033339 C500.013011,372.453549 503.724841,370 508.009247,370 C514.079272,370 519,374.924868 519,381 C519,383.332108 518.274871,385.494711 517.037959,387.274283 L517.083334,387.30153 C507.472865,403.298039 489.962054,414 469.953767,414 C439.60364,414 415,389.375661 415,359 C415,328.624339 439.60364,304 469.953767,304 C490.041272,304 507.611485,314.786872 517.197113,330.888721 L517.16275,330.909168 C518.3235,332.653034 519,334.747448 519,337 C519,343.075132 514.079272,348 508.009247,348 C503.724841,348 500.013011,345.546451 498.199947,341.966661 C492.426942,332.397803 481.93687,326 469.953767,326 C451.743691,326 436.981507,340.774603 436.981507,359 C436.981507,377.225397 451.743691,392 469.953767,392 C481.93687,392 492.426942,385.602197 498.199947,376.033339 Z M470.384615,375.5 C461.208192,375.5 453.769231,368.112698 453.769231,359 C453.769231,349.887302 461.208192,342.5 470.384615,342.5 C479.561039,342.5 487,349.887302 487,359 C487,368.112698 479.561039,375.5 470.384615,375.5 Z" id="Combined-Shape"></path>
        </g>
    </g>
</svg>